<svg xmlns="http://www.w3.org/2000/svg" version="1.1" xmlns:xlink="http://www.w3.org/1999/xlink" xmlns:svgjs="http://svgjs.dev/svgjs" width="100%" height="100%" viewBox="0 0 1000 600"><rect width="1000" height="600" x="0" y="0" fill="#2b3252"/><g><rect width="333.3333333333333" height="333.3333333333333" rx="13.333333333333334" ry="13.333333333333334" y="236.3555754724369" fill="#fad744" transform="matrix(0.5837483656898478,0,0,0.5837483656898478,0,64.73641803084524)" x="214.1334075927735"/><path d="M352.2384874108622 437.62308123567465L352.2384874108622 437.62308123567465Q352.2384874108622 416.08144332071697 329.0106829498455 403.0394612603831L329.0106829498455 403.0394612603831Q324.43394518197107 400.5962403467058 300.7243788506518 390.2039485730361L300.7243788506518 390.2039485730361Q279.1827409356941 381.01606147512285 273.6080678650501 371.346412506907L273.6080678650501 371.346412506907Q270.71749664323465 366.01262037141424 270.71749664323465 359.9561854304677L270.71749664323465 359.9561854304677Q270.71749664323465 343.7483396510027 286.4435805523971 337.45102377490485L286.4435805523971 337.45102377490485Q293.2226582987975 334.8013334882407 301.4470216561057 334.8013334882407L301.4470216561057 334.8013334882407Q321.74984333314245 334.8013334882407 332.4174276041279 348.60036991619285L332.4174276041279 348.60036991619285Q339.4373862856797 358.0291379492574 339.19650535052835 371.58729344205824L339.19650535052835 371.58729344205824L346.4229334050669 371.58729344205824L346.4229334050669 329.2266604175967Q340.6417909614361 329.2266604175967 339.67826722083095 332.87428600703043L339.67826722083095 332.87428600703043Q339.19650535052835 334.5604525530894 339.19650535052835 337.45102377490485L339.19650535052835 337.45102377490485Q321.9907242682938 328.0222557418403 300.48349791550055 328.0222557418403L300.48349791550055 328.0222557418403Q274.33071067050395 328.0222557418403 259.80903143709793 342.54393497524626L259.80903143709793 342.54393497524626Q250.1393824688821 352.6953458137647 250.1393824688821 366.25350130656557L250.1393824688821 366.25350130656557Q250.1393824688821 386.5563229836024 272.88542505959623 399.3918356709494L272.88542505959623 399.3918356709494Q276.98040095716806 401.55976408731095 300.48349791550055 411.7455864879938L300.48349791550055 411.7455864879938Q322.23160520344504 421.41523545620964 328.04715920924036 431.3257653595768L328.04715920924036 431.3257653595768Q331.178611366207 436.9004384302208 331.178611366207 443.43863524146997L331.178611366207 443.43863524146997Q331.178611366207 460.3691238263888 314.7298846515908 467.8708443782431L314.7298846515908 467.8708443782431Q306.9872831645852 471.24317747036105 297.55851513152066 471.24317747036105L297.55851513152066 471.24317747036105Q260.5316742425518 470.7614156000585 256.43669834497996 426.0263847862485L256.43669834497996 426.0263847862485L249.17585872827695 426.0263847862485L249.17585872827695 476.0952077355512Q254.99141273407224 476.0952077355512 255.95493647467737 472.7228746434332L255.95493647467737 472.7228746434332Q256.43669834497996 470.7614156000585 256.43669834497996 465.70291596188156L256.43669834497996 465.70291596188156Q275.0533534759578 478.0222552167615 298.76291980727706 478.0222552167615L298.76291980727706 478.0222552167615Q326.60187359833265 478.0222552167615 341.84619563719247 463.01881411305294L341.84619563719247 463.01881411305294Q352.2384874108622 452.38564140423193 352.2384874108622 437.62308123567465ZM374.0210062609712 475.61344586524865L433.3121278703516 475.61344586524865L433.3121278703516 469.3161299891508L414.1792993069068 469.3161299891508L414.1792993069068 409.0614846391652L437.1662228327722 409.0614846391652L475.8792302678 475.61344586524865L512.4243092864663 475.61344586524865Q512.4243092864663 470.2796537297559 509.5337380646509 469.55701092430206L509.5337380646509 469.55701092430206Q508.29492182673 469.3161299891508 506.608755280671 469.3161299891508L506.608755280671 469.3161299891508L497.4208681827577 469.3161299891508L458.46697981257864 406.8935562228037Q481.45390333844404 401.31888315215963 489.9191476309034 382.9431089563331L489.9191476309034 382.9431089563331Q493.0505997878701 375.6822693396301 493.0505997878701 368.1805487877758L493.0505997878701 368.1805487877758Q493.0505997878701 350.04565552710056 477.3245158787077 339.13719032096384L477.3245158787077 339.13719032096384Q464.5234147535252 330.4310650933531 445.6314671252316 330.4310650933531L445.6314671252316 330.4310650933531L374.0210062609712 330.4310650933531L374.0210062609712 336.72838096945094L393.39471575956736 336.72838096945094L393.39471575956736 469.3161299891508L374.0210062609712 469.3161299891508L374.0210062609712 475.61344586524865ZM414.1792993069068 336.72838096945094L438.37062750852857 336.72838096945094Q459.18962261803244 336.72838096945094 467.1731050401893 353.6588695543698L467.1731050401893 353.6588695543698Q470.30455719715604 360.6788282359215 470.30455719715604 368.4214297229271L470.30455719715604 368.4214297229271Q470.30455719715604 385.83368017814854 458.2260988774273 395.5377407085288L458.2260988774273 395.5377407085288Q450.0017355201192 402.04152595761354 439.09327031398243 402.04152595761354L439.09327031398243 402.04152595761354L414.1792993069068 402.04152595761354L414.1792993069068 336.72838096945094Z " fill="#2b3252" transform="matrix(0.5837483656898478,0,0,0.5837483656898478,0,64.73641803084524)"/><path d="M712.779863043684 365.9013064534838L716.4658162689014 365.9013064534838L715.5508633406558 332.80615196323356L630.8000806728902 332.80615196323356L630.8000806728902 337.59004870234554L645.5177520615244 337.59004870234554L645.5177520615244 438.31329534605356L630.8000806728902 438.31329534605356L630.8000806728902 443.0971920851656L715.5508633406558 443.0971920851656L716.4658162689014 410.0020375949153L712.779863043684 410.0020375949153L710.2179948445965 418.6548781448938Q705.6170886911337 434.2613609495379 696.598266969857 437.39834241780807L696.598266969857 437.39834241780807Q693.8534081851207 438.31329534605356 690.7164267168504 438.31329534605356L690.7164267168504 438.31329534605356L661.3072254518175 438.31329534605356L661.3072254518175 388.87969570856285L699.18627668118 388.87969570856285L699.18627668118 383.54682721250356L661.3072254518175 383.54682721250356L661.3072254518175 337.59004870234554L690.7164267168504 337.59004870234554Q703.9701734202919 337.59004870234554 709.6690230876494 355.41856004701435L709.6690230876494 355.41856004701435Q710.0350042589475 356.5165035609089 710.2179948445965 357.2484659035053L710.2179948445965 357.2484659035053L712.779863043684 365.9013064534838ZM766.9973594202867 438.4962859317027L766.9973594202867 438.4962859317027L758.7366415538419 438.4962859317027L758.7366415538419 398.7873288458494Q759.2856133107892 381.7169213560126 770.8663032311532 374.1620243199286L770.8663032311532 374.1620243199286Q775.8331905559143 371.05118436389404 780.9830684663244 371.05118436389404L780.9830684663244 371.05118436389404Q792.1977772153904 371.05118436389404 796.2235700996704 381.5339307703635L796.2235700996704 381.5339307703635Q797.8966268827479 385.7427142402926 797.8966268827479 391.0755827363519L797.8966268827479 391.0755827363519L797.8966268827479 427.46456776828586Q797.8966268827479 435.9344177326154 793.112730143636 437.5813330034572L793.112730143636 437.5813330034572Q790.341729846664 438.4962859317027 784.093908422359 438.4962859317027L784.093908422359 438.4962859317027L784.093908422359 443.0971920851656L825.4497807790541 443.0971920851656Q825.4497807790541 439.04525768864994 822.7049219943177 438.67927651735175L822.7049219943177 438.67927651735175Q821.9729596517215 438.4962859317027 820.875016137827 438.4962859317027L820.875016137827 438.4962859317027L811.6732038309011 438.4962859317027L811.6732038309011 392.90548859284286Q811.6732038309011 374.5280054912268 798.9945703966424 366.6332687960802L798.9945703966424 366.6332687960802Q793.112730143636 363.13030615651184 786.3159369623837 363.13030615651184L786.3159369623837 363.13030615651184Q772.6962090876442 363.13030615651184 763.886519464252 373.97903373427954L763.886519464252 373.97903373427954Q760.5665474103329 378.21395871644427 758.5536509681928 383.36383662685444L758.5536509681928 383.36383662685444L757.8216886255965 364.98635352523837L731.1573461453 364.98635352523837L731.1573461453 369.5611181664657L744.9600646056887 369.5611181664657L744.9600646056887 427.46456776828586Q744.9600646056887 435.9344177326154 740.1761678665767 437.5813330034572L740.1761678665767 437.5813330034572Q737.4051675696047 438.4962859317027 731.1573461453 438.4962859317027L731.1573461453 438.4962859317027L731.1573461453 443.0971920851656L771.5982655737497 443.0971920851656Q771.5982655737497 439.04525768864994 768.8534067890133 438.67927651735175L768.8534067890133 438.67927651735175Q768.1214444464168 438.4962859317027 766.9973594202867 438.4962859317027ZM833.7366401577345 364.98635352523837L833.7366401577345 369.5611181664657L846.5982641776424 369.5611181664657L846.5982641776424 421.39973692963025Q847.879198277186 444.37812618470923 867.7467475762304 445.1100885273056L867.7467475762304 445.1100885273056Q884.634164480418 445.1100885273056 888.8690894625828 424.35372781225135L888.8690894625828 424.35372781225135Q888.8690894625828 424.1707372266022 888.8690894625828 423.9877466409531L888.8690894625828 423.9877466409531L883.9022021378217 423.07279371270766Q879.3274374965944 438.31329534605356 870.4916063609668 439.5942294455972L870.4916063609668 439.5942294455972Q860.5578317114445 439.22824827429906 860.3748411257953 425.45167132614586L860.3748411257953 425.45167132614586L860.3748411257953 369.5611181664657L888.8690894625828 369.5611181664657L888.8690894625828 364.98635352523837L860.3748411257953 364.98635352523837L860.3748411257953 343.6548795410012L846.5982641776424 347.52382335186775L846.5982641776424 364.98635352523837L833.7366401577345 364.98635352523837ZM935.5578303153371 367.73121230997475L935.5578303153371 367.73121230997475Q948.419454335245 367.73121230997475 952.6543793174095 378.57993988774246L952.6543793174095 378.57993988774246Q954.1183040026023 382.0829025273108 954.1183040026023 386.1086954115908L954.1183040026023 386.1086954115908Q954.1183040026023 395.31050771851665 945.3086143792103 397.32340416065665L945.3086143792103 397.32340416065665Q940.7077082257473 398.23835708890215 932.2639997736534 398.0553665032531L932.2639997736534 398.0553665032531L912.7624316459072 397.5063947463058Q913.6773845741526 376.38405285995333 926.5651501062961 369.9532408499995L926.5651501062961 369.9532408499995Q930.7739335762252 367.73121230997475 935.5578303153371 367.73121230997475ZM967.5550412916929 425.45167132614586L967.5550412916929 425.45167132614586L962.9541351382301 423.80475605530404Q956.523323128276 437.7643235891063 942.17163291094 439.5942294455972L942.17163291094 439.5942294455972Q940.341727054449 439.7772200312463 938.6948117836074 439.7772200312463L938.6948117836074 439.7772200312463Q919.3762342415101 439.7772200312463 914.4093469167491 416.82497228840293L914.4093469167491 416.82497228840293Q912.9454222315563 410.3680187662135 912.7624316459072 402.656272656716L912.7624316459072 402.656272656716L934.8258679727409 403.0222538280142Q957.2552854708725 403.3882349993123 963.6860974808263 398.7873288458494L963.6860974808263 398.7873288458494Q968.6529848055874 395.1275171328676 968.6529848055874 388.33072395161554L968.6529848055874 388.33072395161554Q968.6529848055874 375.835081103006 955.9743513713289 368.4631746525711L955.9743513713289 368.4631746525711Q946.9555296500522 363.13030615651184 935.1918491440389 363.13030615651184L935.1918491440389 363.13030615651184Q912.2134598889601 363.13030615651184 902.2796852394378 382.2658931129599L902.2796852394378 382.2658931129599Q897.1559488412632 392.1735262502465 897.1559488412632 404.669169098856L897.1559488412632 404.669169098856Q897.1559488412632 427.46456776828586 913.4943939885037 438.4962859317027L913.4943939885037 438.4962859317027Q923.2451780523767 444.9270979416565 935.7408209009863 444.9270979416565L935.7408209009863 444.9270979416565Q955.582228687795 444.9270979416565 964.96703158037 430.6015492365561L964.96703158037 430.6015492365561Q966.4309562655627 428.0135395252332 967.5550412916929 425.45167132614586ZM1021.7725376682957 438.4962859317027L1021.7725376682957 438.4962859317027L1008.5187909648542 438.4962859317027L1008.5187909648542 401.9243103141196Q1008.5187909648542 385.1937424833454 1018.8185467856746 375.0769772481741L1018.8185467856746 375.0769772481741Q1022.8704811821902 371.2341749495431 1025.6153399669265 371.05118436389404L1025.6153399669265 371.05118436389404Q1028.7523214351968 371.05118436389404 1031.314189634284 375.65209051735695L1031.314189634284 375.65209051735695Q1034.268180516905 380.7758269155315 1036.8300487159922 381.5339307703635L1036.8300487159922 381.5339307703635Q1037.927992229887 381.8999119416617 1039.0520772560171 381.8999119416617L1039.0520772560171 381.8999119416617Q1044.5679363377253 381.8999119416617 1046.0318610229183 376.5670434456024L1046.0318610229183 376.5670434456024Q1046.3978421942165 375.44295841947223 1046.3978421942165 374.3450149055777L1046.3978421942165 374.3450149055777Q1046.3978421942165 366.08429703913293 1037.927992229887 364.254391182642L1037.927992229887 364.254391182642Q1036.0980863733962 363.8884100113438 1034.4511711025543 363.8884100113438L1034.4511711025543 363.8884100113438Q1023.4194529391374 363.8884100113438 1014.7927539013943 373.24707139168316L1014.7927539013943 373.24707139168316Q1010.7408195048789 377.66498695949696 1008.3358003792051 383.1808460412053L1008.3358003792051 383.1808460412053L1007.6038380366086 364.98635352523837L980.9656370685478 364.98635352523837L980.9656370685478 369.5611181664657L994.742214016701 369.5611181664657L994.742214016701 427.46456776828586Q994.742214016701 435.9344177326154 989.9583172775889 437.5813330034572L989.9583172775889 437.5813330034572Q987.2134584928525 438.4962859317027 980.9656370685478 438.4962859317027L980.9656370685478 438.4962859317027L980.9656370685478 443.0971920851656L1026.3734438217584 443.0971920851656Q1026.3734438217584 439.04525768864994 1023.6024435247865 438.67927651735175L1023.6024435247865 438.67927651735175Q1022.8704811821902 438.4962859317027 1021.7725376682957 438.4962859317027ZM1092.5376112900235 473.4213462784439L1079.675987270116 473.4213462784439L1079.675987270116 435.38544597566806Q1089.7666109930515 444.1951355990601 1103.0203576964927 444.9270979416565L1103.0203576964927 444.9270979416565Q1119.3588028437334 444.9270979416565 1130.3905210071503 432.6144456786961L1130.3905210071503 432.6144456786961Q1141.0562579992688 420.6677745870339 1141.0562579992688 402.2902914854178L1141.0562579992688 402.2902914854178Q1141.0562579992688 381.32479867247883 1129.4755680789049 370.5022126069467L1129.4755680789049 370.5022126069467Q1121.397840798109 363.13030615651184 1109.817150877745 363.13030615651184L1109.817150877745 363.13030615651184Q1091.9886395330764 363.13030615651184 1083.1528083974486 377.29900578819877L1083.1528083974486 377.29900578819877Q1080.9569213696595 380.95881750118065 1079.4929966844666 385.01075189769625L1079.4929966844666 385.01075189769625L1078.5519022439858 364.98635352523837L1052.096691861574 364.98635352523837L1052.096691861574 369.5611181664657L1065.873268809727 369.5611181664657L1065.873268809727 462.3896281150271Q1065.873268809727 470.85947807935656 1061.089372070615 472.50639335019844L1061.089372070615 472.50639335019844Q1058.3445132858787 473.4213462784439 1052.096691861574 473.4213462784439L1052.096691861574 473.4213462784439L1052.096691861574 478.0222524319068L1097.1385174434863 478.0222524319068Q1097.1385174434863 473.9703180353912 1094.3675171465143 473.60433686409294L1094.3675171465143 473.60433686409294Q1093.6355548039182 473.4213462784439 1092.5376112900235 473.4213462784439L1092.5376112900235 473.4213462784439ZM1103.9353106247386 370.5022126069467L1103.9353106247386 370.5022126069467Q1119.9077746006806 370.5022126069467 1124.1426995828456 390.52661097940467L1124.1426995828456 390.52661097940467Q1125.4236336823892 396.59144181806033 1125.4236336823892 404.1201973419087L1125.4236336823892 404.1201973419087Q1125.4236336823892 431.15052099350333 1110.9150943916397 438.31329534605356L1110.9150943916397 438.31329534605356Q1106.6801694094747 440.35233330042917 1101.7132820847137 440.35233330042917L1101.7132820847137 440.35233330042917Q1087.5707239652625 440.35233330042917 1082.2378554692032 425.45167132614586L1082.2378554692032 425.45167132614586Q1079.4929966844666 417.92291580229744 1079.4929966844666 407.6231599814771L1079.4929966844666 407.6231599814771Q1079.4929966844666 383.7298177981526 1091.805648947427 374.5280054912268L1091.805648947427 374.5280054912268Q1097.3215080291357 370.5022126069467 1103.9353106247386 370.5022126069467ZM1195.0907637902224 438.4962859317027L1195.0907637902224 438.4962859317027L1181.8631585990165 438.4962859317027L1181.8631585990165 401.9243103141196Q1181.8631585990165 385.1937424833454 1192.1629144198369 375.0769772481741L1192.1629144198369 375.0769772481741Q1196.188707304117 371.2341749495431 1198.9597076010891 371.05118436389404L1198.9597076010891 371.05118436389404Q1202.0705475571235 371.05118436389404 1204.6585572684467 375.65209051735695L1204.6585572684467 375.65209051735695Q1207.5864066388322 380.7758269155315 1210.1744163501548 381.5339307703635L1210.1744163501548 381.5339307703635Q1211.2723598640496 381.8999119416617 1212.3703033779439 381.8999119416617L1212.3703033779439 381.8999119416617Q1217.8861624596525 381.8999119416617 1219.350087144845 376.5670434456024L1219.350087144845 376.5670434456024Q1219.7160683161433 375.44295841947223 1219.7160683161433 374.3450149055777L1219.7160683161433 374.3450149055777Q1219.7160683161433 366.08429703913293 1211.2723598640496 364.254391182642L1211.2723598640496 364.254391182642Q1209.4424540075584 363.8884100113438 1207.769397224481 363.8884100113438L1207.769397224481 363.8884100113438Q1196.7376790610642 363.8884100113438 1188.1109800233212 373.24707139168316L1188.1109800233212 373.24707139168316Q1184.0590456268055 377.66498695949696 1181.6801680133676 383.1808460412053L1181.6801680133676 383.1808460412053L1180.9482056707711 364.98635352523837L1154.2838631904747 364.98635352523837L1154.2838631904747 369.5611181664657L1168.0865816508635 369.5611181664657L1168.0865816508635 427.46456776828586Q1168.0865816508635 435.9344177326154 1163.3026849117514 437.5813330034572L1163.3026849117514 437.5813330034572Q1160.5316846147794 438.4962859317027 1154.2838631904747 438.4962859317027L1154.2838631904747 438.4962859317027L1154.2838631904747 443.0971920851656L1199.6916699436852 443.0971920851656Q1199.6916699436852 439.04525768864994 1196.946811158949 438.67927651735175L1196.946811158949 438.67927651735175Q1196.188707304117 438.4962859317027 1195.0907637902224 438.4962859317027ZM1263.8429409698106 438.4962859317027L1263.8429409698106 438.4962859317027L1254.6411286628845 438.4962859317027L1254.6411286628845 364.98635352523837L1226.1468803260973 364.98635352523837L1226.1468803260973 369.5611181664657L1240.8645517147315 369.5611181664657L1240.8645517147315 427.46456776828586Q1240.8645517147315 435.9344177326154 1235.165702047374 437.7643235891063L1235.165702047374 437.7643235891063Q1232.4208432626374 438.4962859317027 1226.1468803260973 438.4962859317027L1226.1468803260973 438.4962859317027L1226.1468803260973 443.0971920851656L1268.4438471232734 443.0971920851656Q1268.4438471232734 439.04525768864994 1265.6728468263013 438.67927651735175L1265.6728468263013 438.67927651735175Q1264.757893898056 438.4962859317027 1263.8429409698106 438.4962859317027ZM1256.8631572029094 338.13902045929285L1256.8631572029094 338.13902045929285Q1256.8631572029094 331.708208449339 1251.1643075355519 328.9633496646026L1251.1643075355519 328.9633496646026Q1248.942278995527 328.0222552241215 1246.9293825533873 328.0222552241215L1246.9293825533873 328.0222552241215Q1240.4985705434333 328.0222552241215 1237.7275702464613 333.9040954771281L1237.7275702464613 333.9040954771281Q1236.8126173182159 335.9431334315037 1236.8126173182159 338.13902045929285L1236.8126173182159 338.13902045929285Q1236.8126173182159 344.93581364054484 1242.8774481568717 347.52382335186775L1242.8774481568717 347.52382335186775Q1244.9164861112472 348.2557856944641 1246.9293825533873 348.2557856944641L1246.9293825533873 348.2557856944641Q1253.3601945633409 348.2557856944641 1255.948204274664 342.3739454414576L1255.948204274664 342.3739454414576Q1256.8631572029094 340.3610489993176 1256.8631572029094 338.13902045929285ZM1308.8847665517228 439.96021061689544L1308.8847665517228 439.96021061689544Q1321.5633999859815 439.96021061689544 1325.95517404156 432.2484645073979L1325.95517404156 432.2484645073979Q1327.6282308246373 429.5036057226615 1327.6282308246373 426.18363366874223L1327.6282308246373 426.18363366874223Q1327.6282308246373 418.47188755924475 1316.413522075571 412.9560284775364L1316.413522075571 412.9560284775364Q1314.0085029498978 411.67509437799276 1308.4926438681891 409.2700752523189L1308.4926438681891 409.2700752523189Q1293.4351328204925 403.0222538280142 1288.468245495731 397.5063947463058L1288.468245495731 397.5063947463058Q1283.1353769996717 391.4415639076501 1283.1353769996717 383.36383662685444L1283.1353769996717 383.36383662685444Q1283.1353769996717 370.68520319259585 1297.12108604571 365.5353252821856L1297.12108604571 365.5353252821856Q1303.5518980556635 363.13030615651184 1311.0806535795123 363.13030615651184L1311.0806535795123 363.13030615651184Q1323.2103152568234 363.13030615651184 1332.0200048802153 368.28018406692206L1332.0200048802153 368.28018406692206Q1332.0200048802153 362.94731557086277 1334.6080145915384 362.2153532282664L1334.6080145915384 362.2153532282664Q1335.7059581054327 362.0323626426173 1336.9868922049764 362.0323626426173L1336.9868922049764 362.0323626426173L1336.9868922049764 385.01075189769625L1332.2291369781 385.01075189769625Q1331.8370142945664 368.09719348127294 1313.4595311929502 367.9142028956238L1313.4595311929502 367.9142028956238Q1299.6829542447972 367.9142028956238 1296.362982190878 376.01807168865514L1296.362982190878 376.01807168865514Q1295.4480292626322 378.21395871644427 1295.4480292626322 380.59283632988246L1295.4480292626322 380.59283632988246Q1295.4480292626322 388.5137145372646 1306.8457285973473 394.029573618973L1306.8457285973473 394.029573618973Q1309.4337383086704 395.31050771851665 1314.9495973903786 397.5063947463058L1314.9495973903786 397.5063947463058Q1329.8241178524263 403.57122558496144 1334.7910051771873 409.08708466666985L1334.7910051771873 409.08708466666985Q1340.1238736732466 414.9689249196764 1340.1238736732466 423.07279371270766L1340.1238736732466 423.07279371270766Q1340.1238736732466 437.9473141747554 1324.308258770718 442.9142014995165L1324.308258770718 442.9142014995165Q1318.2434279320623 444.9270979416565 1311.0806535795123 444.9270979416565L1311.0806535795123 444.9270979416565Q1297.8530483883064 444.7441073560074 1288.1022643244332 438.31329534605356L1288.1022643244332 438.31329534605356Q1288.1022643244332 443.0971920851656 1285.7233867109949 443.829154427762L1285.7233867109949 443.829154427762Q1284.5993016848647 444.01214501341104 1283.1353769996717 444.01214501341104L1283.1353769996717 444.01214501341104L1283.1353769996717 416.0668684335709L1288.2852549100821 416.0668684335709Q1288.6512360813804 439.7772200312463 1308.8847665517228 439.96021061689544ZM1393.2434265359552 367.73121230997475L1393.2434265359552 367.73121230997475Q1406.1050505558624 367.73121230997475 1410.3399755380274 378.57993988774246L1410.3399755380274 378.57993988774246Q1411.80390022322 382.0829025273108 1411.80390022322 386.1086954115908L1411.80390022322 386.1086954115908Q1411.80390022322 395.31050771851665 1402.994210599828 397.32340416065665L1402.994210599828 397.32340416065665Q1398.3933044463652 398.23835708890215 1389.9234544820356 398.0553665032531L1389.9234544820356 398.0553665032531L1370.448027866525 397.5063947463058Q1371.3629807947705 376.38405285995333 1384.224604814678 369.9532408499995L1384.224604814678 369.9532408499995Q1388.4595297968426 367.73121230997475 1393.2434265359552 367.73121230997475ZM1425.214496000075 425.45167132614586L1425.214496000075 425.45167132614586L1420.6397313588477 423.80475605530404Q1414.1827778366583 437.7643235891063 1399.8572291315577 439.5942294455972L1399.8572291315577 439.5942294455972Q1398.027323275067 439.7772200312463 1396.3542664919896 439.7772200312463L1396.3542664919896 439.7772200312463Q1377.061830462128 439.7772200312463 1372.094943137367 416.82497228840293L1372.094943137367 416.82497228840293Q1370.631018452174 410.3680187662135 1370.448027866525 402.656272656716L1370.448027866525 402.656272656716L1392.5114641933583 403.0222538280142Q1414.9408816914902 403.3882349993123 1421.3716937014442 398.7873288458494L1421.3716937014442 398.7873288458494Q1426.3385810262052 395.1275171328676 1426.3385810262052 388.33072395161554L1426.3385810262052 388.33072395161554Q1426.3385810262052 375.835081103006 1413.6338060797111 368.4631746525711L1413.6338060797111 368.4631746525711Q1404.6411258706698 363.13030615651184 1392.8774453646565 363.13030615651184L1392.8774453646565 363.13030615651184Q1369.899056109578 363.13030615651184 1359.9652814600554 382.2658931129599L1359.9652814600554 382.2658931129599Q1354.8154035496455 392.1735262502465 1354.8154035496455 404.669169098856L1354.8154035496455 404.669169098856Q1354.8154035496455 427.46456776828586 1371.1799902091211 438.4962859317027L1371.1799902091211 438.4962859317027Q1380.9307742729943 444.9270979416565 1393.4264171216041 444.9270979416565L1393.4264171216041 444.9270979416565Q1413.2678249084129 444.9270979416565 1422.6526278009878 430.6015492365561L1422.6526278009878 430.6015492365561Q1424.1165524861804 428.0135395252332 1425.214496000075 425.45167132614586ZM1467.6944533829 439.96021061689544L1467.6944533829 439.96021061689544Q1480.3730868171588 439.96021061689544 1484.7648608727372 432.2484645073979L1484.7648608727372 432.2484645073979Q1486.4379176558145 429.5036057226615 1486.4379176558145 426.18363366874223L1486.4379176558145 426.18363366874223Q1486.4379176558145 418.47188755924475 1475.2232089067488 412.9560284775364L1475.2232089067488 412.9560284775364Q1472.818189781075 411.67509437799276 1467.3023306993664 409.2700752523189L1467.3023306993664 409.2700752523189Q1452.2448196516698 403.0222538280142 1447.2779323269083 397.5063947463058L1447.2779323269083 397.5063947463058Q1441.9450638308494 391.4415639076501 1441.9450638308494 383.36383662685444L1441.9450638308494 383.36383662685444Q1441.9450638308494 370.68520319259585 1455.9307728768872 365.5353252821856L1455.9307728768872 365.5353252821856Q1462.3615848868408 363.13030615651184 1469.8903404106895 363.13030615651184L1469.8903404106895 363.13030615651184Q1482.0200020880006 363.13030615651184 1490.8296917113926 368.28018406692206L1490.8296917113926 368.28018406692206Q1490.8296917113926 362.94731557086277 1493.4177014227157 362.2153532282664L1493.4177014227157 362.2153532282664Q1494.51564493661 362.0323626426173 1495.7965790361536 362.0323626426173L1495.7965790361536 362.0323626426173L1495.7965790361536 385.01075189769625L1491.0388238092773 385.01075189769625Q1490.6467011257437 368.09719348127294 1472.2692180241274 367.9142028956238L1472.2692180241274 367.9142028956238Q1458.4926410759745 367.9142028956238 1455.1726690220553 376.01807168865514L1455.1726690220553 376.01807168865514Q1454.2577160938094 378.21395871644427 1454.2577160938094 380.59283632988246L1454.2577160938094 380.59283632988246Q1454.2577160938094 388.5137145372646 1465.6554154285245 394.029573618973L1465.6554154285245 394.029573618973Q1468.2434251398477 395.31050771851665 1473.7592842215558 397.5063947463058L1473.7592842215558 397.5063947463058Q1488.6338046836036 403.57122558496144 1493.6006920083646 409.08708466666985L1493.6006920083646 409.08708466666985Q1498.933560504424 414.9689249196764 1498.933560504424 423.07279371270766L1498.933560504424 423.07279371270766Q1498.933560504424 437.9473141747554 1483.1179456018954 442.9142014995165L1483.1179456018954 442.9142014995165Q1477.0531147632396 444.9270979416565 1469.8903404106895 444.9270979416565L1469.8903404106895 444.9270979416565Q1456.6627352194837 444.7441073560074 1446.9119511556105 438.31329534605356L1446.9119511556105 438.31329534605356Q1446.9119511556105 443.0971920851656 1444.5330735421721 443.829154427762L1444.5330735421721 443.829154427762Q1443.408988516042 444.01214501341104 1441.9450638308494 444.01214501341104L1441.9450638308494 444.01214501341104L1441.9450638308494 416.0668684335709L1447.0949417412594 416.0668684335709Q1447.4609229125576 439.7772200312463 1467.6944533829 439.96021061689544Z " fill="#fad744" transform="matrix(0.5837483656898478,0,0,0.5837483656898478,0,64.73641803084524)"/></g></svg>